<svg width="24" height="22" viewBox="0 0 24 22" fill="none" xmlns="http://www.w3.org/2000/svg">
<path fill-rule="evenodd" clip-rule="evenodd" d="M12.0433 3.25709L11.3788 2.48047C8.70487 -0.19349 4.44058 -0.0112731 1.76662 2.66269C-0.907338 5.33664 -0.392728 10.5063 2.28123 13.1802C3.36648 14.2655 4.99171 15.7681 7.15691 17.6881L8.97847 19.2906L11.0244 21.0665C11.5877 21.5527 12.42 21.5601 12.992 21.0841L14.6494 19.6945C17.5518 17.2416 19.7056 15.3095 21.1108 13.8983L21.4755 13.5264L21.8031 13.1802C24.2934 10.4947 24.9333 5.27446 22.3216 2.66269L22.1324 2.48047C19.4469 -0.0098269 15.3973 -0.131305 12.7855 2.48047L12.0433 3.25709ZM2.84252 3.73865C4.95693 1.62424 8.22804 1.52511 10.2636 3.51754L11.9809 5.52466L13.8855 3.5318C15.8391 1.57877 18.9526 1.60701 21.0977 3.59622L21.2661 3.75871C23.1117 5.60469 22.7977 9.86991 20.6873 12.1457L20.3703 12.4806L20.0186 12.8391C18.8537 14.0082 17.1274 15.5745 14.8511 17.5251L13.6672 18.5324L12.0185 19.9147L9.97587 18.1416L8.51391 16.8573C6.45389 15.0367 4.86472 13.5804 3.75204 12.4943L3.35713 12.1044C1.15435 9.90159 0.878842 5.70233 2.84252 3.73865Z" fill="#333333"/>
</svg>
