<svg width="18" height="19" viewBox="0 0 18 19" fill="none" xmlns="http://www.w3.org/2000/svg">
<path fill-rule="evenodd" clip-rule="evenodd" d="M15.0231 8.01157C15.0231 3.86304 11.6601 0.5 7.51157 0.5C3.36304 0.5 0 3.86304 0 8.01157C0 12.1601 3.36304 15.5231 7.51157 15.5231C9.37799 15.5231 11.0854 14.8424 12.3991 13.7157L17.0136 18.3308L17.0784 18.3867C17.3046 18.5545 17.6256 18.5359 17.8308 18.3308C18.0564 18.1051 18.0564 17.7393 17.8308 17.5136L13.2157 12.8991C14.3424 11.5854 15.0231 9.87799 15.0231 8.01157ZM1.15563 8.01157C1.15563 4.50128 4.00128 1.65563 7.51157 1.65563C11.0219 1.65563 13.8675 4.50128 13.8675 8.01157C13.8675 11.5219 11.0219 14.3675 7.51157 14.3675C4.00128 14.3675 1.15563 11.5219 1.15563 8.01157Z" fill="#9EA2B1"/>
</svg>
