<svg width="43" height="29" viewBox="0 0 43 29" fill="none" xmlns="http://www.w3.org/2000/svg">
<rect y="9.15527e-05" width="42.29" height="28.9989" rx="2.41657" fill="black"/>
<path fill-rule="evenodd" clip-rule="evenodd" d="M21.4467 20.7306C20.007 21.973 18.1394 22.7231 16.0986 22.7231C11.545 22.7231 7.85352 18.9888 7.85352 14.3823C7.85352 9.7758 11.545 6.0415 16.0986 6.0415C18.1394 6.0415 20.007 6.79155 21.4467 8.034C22.8865 6.79155 24.7541 6.0415 26.7949 6.0415C31.3485 6.0415 35.0399 9.7758 35.0399 14.3823C35.0399 18.9888 31.3485 22.7231 26.7949 22.7231C24.7541 22.7231 22.8865 21.973 21.4467 20.7306Z" fill="#ED0006"/>
<path fill-rule="evenodd" clip-rule="evenodd" d="M21.4473 20.7306C23.2201 19.2007 24.3442 16.9243 24.3442 14.3823C24.3442 11.8403 23.2201 9.56385 21.4473 8.034C22.887 6.79155 24.7546 6.0415 26.7954 6.0415C31.349 6.0415 35.0405 9.7758 35.0405 14.3823C35.0405 18.9888 31.349 22.7231 26.7954 22.7231C24.7546 22.7231 22.887 21.973 21.4473 20.7306Z" fill="#F9A000"/>
<path fill-rule="evenodd" clip-rule="evenodd" d="M21.4467 20.7306C23.2195 19.2007 24.3436 16.9243 24.3436 14.3823C24.3436 11.8403 23.2195 9.56391 21.4467 8.03406C19.6739 9.56391 18.5498 11.8403 18.5498 14.3823C18.5498 16.9243 19.6739 19.2007 21.4467 20.7306Z" fill="#FF5E00"/>
</svg>
