<svg width="26" height="29" viewBox="0 0 26 29" fill="none" xmlns="http://www.w3.org/2000/svg">
<path fill-rule="evenodd" clip-rule="evenodd" d="M16.6922 0.850193C16.6312 0.839302 16.5684 0.833618 16.5043 0.833618C16.4401 0.833618 16.3773 0.839302 16.3163 0.850193H7.45276C3.92909 0.850193 0.958755 3.70879 0.958755 7.19544V22.4062C0.958755 26.086 3.79328 28.9753 7.45276 28.9753H18.7691C22.248 28.9753 25.1158 25.9407 25.1158 22.4062V9.38703C25.1158 9.1127 25.0097 8.84901 24.8197 8.65113L17.6428 1.1768C17.4425 0.968141 17.1657 0.850193 16.8764 0.850193H16.6922ZM15.4418 2.97406L7.45276 2.97519C5.08485 2.97519 3.08376 4.90101 3.08376 7.19544V22.4062C3.08376 24.9214 4.97608 26.8503 7.45276 26.8503H18.7691C21.0467 26.8503 22.9908 24.7932 22.9908 22.4062L22.9904 10.7263L21.7486 10.7306C21.2762 10.73 20.7388 10.729 20.1414 10.7276C17.6335 10.7223 15.5873 8.7577 15.4492 6.28411L15.4418 6.0172V2.97406ZM21.8273 8.60239L20.1461 8.60262C18.7204 8.59961 17.5668 7.44317 17.5668 6.0172V4.1654L21.8273 8.60239ZM11.4283 13.946V20.6859L11.438 20.8301C11.5084 21.3487 11.9529 21.7484 12.4908 21.7484C13.0776 21.7484 13.5533 21.2727 13.5533 20.6859V13.9471L15.7593 16.1622L15.8783 16.2654C16.2936 16.5749 16.8839 16.5418 17.2619 16.1654C17.6777 15.7514 17.6791 15.0786 17.2651 14.6628L13.2449 10.6257C13.2079 10.5884 13.1681 10.5538 13.1258 10.5222L13.1238 10.5205C12.7072 10.2103 12.1148 10.2448 11.7373 10.624L7.71676 14.663L7.61416 14.7824C7.30649 15.199 7.34213 15.7892 7.7202 16.1656L7.8396 16.2682C8.25625 16.5758 8.84645 16.5402 9.2228 16.1621L11.4283 13.946Z" fill="#333333"/>
</svg>
