<svg width="30" height="30" viewBox="0 0 30 30" fill="none" xmlns="http://www.w3.org/2000/svg">
<path fill-rule="evenodd" clip-rule="evenodd" d="M29.5572 3.88719C30.0246 1.77869 28.0639 -0.123902 25.9409 0.490494L2.45607 7.3241L2.22943 7.39944C0.0250449 8.22905 -0.313178 11.2992 1.75152 12.5702L11.4648 18.549L17.3085 28.2301L17.4398 28.43C18.8096 30.3493 21.843 29.8844 22.5346 27.5579L29.5023 4.09864L29.5572 3.88719ZM26.6773 2.62972C27.1105 2.58321 27.4806 3.00456 27.3457 3.45698L20.3778 26.917L20.3321 27.032C20.1143 27.4603 19.4982 27.5039 19.2348 27.0675L13.7028 17.904L21.5816 9.9745L21.6901 9.84796C22.0154 9.40646 21.977 8.78159 21.5763 8.38352L21.4497 8.27502C21.0082 7.9497 20.3834 7.98809 19.9853 8.38882L12.1173 16.308L2.93097 10.6541L2.83179 10.5797C2.47504 10.2547 2.59513 9.62659 3.08397 9.48471L26.5679 2.65135L26.6773 2.62972Z" fill="white"/>
</svg>
